<svg xmlns="http://www.w3.org/2000/svg" viewBox="0 0 560 640" role="img" aria-labelledby="title desc">
  <!-- Generated by assets/generate_ec_encryption_radar.py -->
  <title id="title">EC encryption throughput radar chart</title>
  <desc id="desc">Log-scaled radar chart comparing ECIES P-256, EC ElGamal P-256, and Edwards ElGamal key generation, encryption, and decryption throughput.</desc>
  <style>
    .bg { fill: #fbf8f1; }
    .grid { fill: none; stroke: #c9c2b7; stroke-width: 1; }
    .axis { stroke: #a79d90; stroke-width: 1; }
    .label { fill: #342f29; font: 12px ui-sans-serif, -apple-system, BlinkMacSystemFont, "Segoe UI", sans-serif; }
    .small { fill: #6b6257; font: 11px ui-sans-serif, -apple-system, BlinkMacSystemFont, "Segoe UI", sans-serif; }
  </style>

  <rect class="bg" x="0" y="0" width="560" height="640" rx="16" />

  <polygon class="grid" points="280.0,235.0 280.0,235.0 280.0,235.0" />
  <polygon class="grid" points="280.0,182.3 325.6,261.3 234.4,261.3" />
  <polygon class="grid" points="280.0,129.6 371.2,287.7 188.8,287.7" />
  <polygon class="grid" points="280.0,77.0 416.9,314.0 143.1,314.0" />
  <polygon class="grid" points="280.0,60.0 431.6,322.5 128.4,322.5" />

  <line class="axis" x1="280" y1="235" x2="280.0" y2="60.0" />
  <line class="axis" x1="280" y1="235" x2="431.6" y2="322.5" />
  <line class="axis" x1="280" y1="235" x2="128.4" y2="322.5" />

  <polygon points="280.0,114.4 340.1,269.7 173.7,296.4" fill="#0f766e" fill-opacity="0.18" stroke="#0f766e" stroke-width="2" />
  <rect x="20" y="540" width="14" height="14" rx="2" fill="#0f766e" />
  <text class="small" x="40" y="551">ECIES (P-256)</text>
  <polygon points="280.0,114.2 337.8,268.3 175.1,295.6" fill="#1d4ed8" fill-opacity="0.18" stroke="#1d4ed8" stroke-width="2" />
  <rect x="20" y="562" width="14" height="14" rx="2" fill="#1d4ed8" />
  <text class="small" x="40" y="573">EC ElGamal (P-256)</text>
  <polygon points="280.0,109.2 385.2,295.7 158.0,305.4" fill="#b45309" fill-opacity="0.18" stroke="#b45309" stroke-width="2" />
  <rect x="20" y="584" width="14" height="14" rx="2" fill="#b45309" />
  <text class="small" x="40" y="595">Edwards ElGamal</text>

  <text class="small" x="314" y="236">100</text>
  <text class="small" x="314" y="183">200</text>
  <text class="small" x="314" y="131">400</text>
  <text class="small" x="314" y="78">800</text>
  <text class="small" x="314" y="61">1000</text>

  <text class="label" x="280.0" y="36.0" text-anchor="middle">Keygen</text>
  <text class="label" x="452.3" y="338.5" text-anchor="start">Encrypt</text>
  <text class="label" x="107.7" y="338.5" text-anchor="end">Decrypt</text>

  <text class="label" x="20" y="516">EC Encryption Throughput (log scale)</text>
  <text class="small" x="20" y="534">Radial scale is operations/second, spanning 100 to 1,000</text>
</svg>
