<svg xmlns="http://www.w3.org/2000/svg" viewBox="0 0 560 620" role="img" aria-labelledby="title desc">
  <!-- Generated by assets/generate_ec_key_agreement_radar.py -->
  <title id="title">EC key-agreement throughput radar chart</title>
  <desc id="desc">Log-scaled radar chart comparing ECDH P-256 and Edwards DH key generation, agreement, and public-key serialization throughput.</desc>
  <style>
    .bg { fill: #fbf8f1; }
    .grid { fill: none; stroke: #c9c2b7; stroke-width: 1; }
    .axis { stroke: #a79d90; stroke-width: 1; }
    .label { fill: #342f29; font: 12px ui-sans-serif, -apple-system, BlinkMacSystemFont, "Segoe UI", sans-serif; }
    .small { fill: #6b6257; font: 11px ui-sans-serif, -apple-system, BlinkMacSystemFont, "Segoe UI", sans-serif; }
  </style>

  <rect class="bg" x="0" y="0" width="560" height="620" rx="16" />

  <polygon class="grid" points="280.0,240.0 280.0,240.0 280.0,240.0" />
  <polygon class="grid" points="280.0,180.0 332.0,270.0 228.0,270.0" />
  <polygon class="grid" points="280.0,120.0 383.9,300.0 176.1,300.0" />
  <polygon class="grid" points="280.0,60.0 435.9,330.0 124.1,330.0" />

  <line class="axis" x1="280" y1="240" x2="280.0" y2="60.0" />
  <line class="axis" x1="280" y1="240" x2="435.9" y2="330.0" />
  <line class="axis" x1="280" y1="240" x2="124.1" y2="330.0" />

  <polygon points="280.0,197.1 302.1,252.7 124.1,330.0" fill="#0f766e" fill-opacity="0.18" stroke="#0f766e" stroke-width="2" />
  <rect x="20" y="550" width="14" height="14" rx="2" fill="#0f766e" />
  <text class="small" x="40" y="561">ECDH (P-256)</text>
  <polygon points="280.0,189.3 309.2,256.8 232.4,267.5" fill="#1d4ed8" fill-opacity="0.18" stroke="#1d4ed8" stroke-width="2" />
  <rect x="20" y="572" width="14" height="14" rx="2" fill="#1d4ed8" />
  <text class="small" x="40" y="583">Edwards DH</text>

  <text class="small" x="314" y="241">100</text>
  <text class="small" x="314" y="181">1000</text>
  <text class="small" x="314" y="121">10000</text>
  <text class="small" x="314" y="61">100000</text>

  <text class="label" x="280.0" y="36.0" text-anchor="middle">Keygen</text>
  <text class="label" x="456.7" y="346.0" text-anchor="start">Agree</text>
  <text class="label" x="103.3" y="346.0" text-anchor="end">Serialize</text>

  <text class="label" x="20" y="526">EC Key-agreement Throughput (log scale)</text>
  <text class="small" x="20" y="544">Radial scale is operations/second, spanning 100 to 100,000</text>
</svg>
