<svg xmlns="http://www.w3.org/2000/svg" viewBox="0 0 560 620" role="img" aria-labelledby="title desc">
  <!-- Generated by assets/generate_ec_signature_radar.py -->
  <title id="title">EC signature throughput radar chart</title>
  <desc id="desc">Log-scaled radar chart comparing ECDSA P-256 and Ed25519 key generation, signing, and verification throughput.</desc>
  <style>
    .bg { fill: #fbf8f1; }
    .grid { fill: none; stroke: #c9c2b7; stroke-width: 1; }
    .axis { stroke: #a79d90; stroke-width: 1; }
    .label { fill: #342f29; font: 12px ui-sans-serif, -apple-system, BlinkMacSystemFont, "Segoe UI", sans-serif; }
    .small { fill: #6b6257; font: 11px ui-sans-serif, -apple-system, BlinkMacSystemFont, "Segoe UI", sans-serif; }
  </style>

  <rect class="bg" x="0" y="0" width="560" height="620" rx="16" />

  <polygon class="grid" points="280.0,240.0 280.0,240.0 280.0,240.0" />
  <polygon class="grid" points="280.0,185.8 326.9,267.1 233.1,267.1" />
  <polygon class="grid" points="280.0,131.6 373.9,294.2 186.1,294.2" />
  <polygon class="grid" points="280.0,77.4 420.8,321.3 139.2,321.3" />
  <polygon class="grid" points="280.0,60.0 435.9,330.0 124.1,330.0" />

  <line class="axis" x1="280" y1="240" x2="280.0" y2="60.0" />
  <line class="axis" x1="280" y1="240" x2="435.9" y2="330.0" />
  <line class="axis" x1="280" y1="240" x2="124.1" y2="330.0" />

  <polygon points="280.0,115.9 383.7,299.9 219.9,274.7" fill="#0f766e" fill-opacity="0.18" stroke="#0f766e" stroke-width="2" />
  <rect x="20" y="550" width="14" height="14" rx="2" fill="#0f766e" />
  <text class="small" x="40" y="561">ECDSA (P-256)</text>
  <polygon points="280.0,115.8 433.6,328.7 203.5,284.2" fill="#1d4ed8" fill-opacity="0.18" stroke="#1d4ed8" stroke-width="2" />
  <rect x="20" y="572" width="14" height="14" rx="2" fill="#1d4ed8" />
  <text class="small" x="40" y="583">Ed25519</text>

  <text class="small" x="314" y="241">100</text>
  <text class="small" x="314" y="187">200</text>
  <text class="small" x="314" y="133">400</text>
  <text class="small" x="314" y="78">800</text>
  <text class="small" x="314" y="61">1000</text>

  <text class="label" x="280.0" y="36.0" text-anchor="middle">Keygen</text>
  <text class="label" x="456.7" y="346.0" text-anchor="start">Sign</text>
  <text class="label" x="103.3" y="346.0" text-anchor="end">Verify</text>

  <text class="label" x="20" y="526">EC Signature Throughput (log scale)</text>
  <text class="small" x="20" y="544">Radial scale is operations/second, spanning 100 to 1,000</text>
</svg>
