<svg xmlns="http://www.w3.org/2000/svg" viewBox="0 0 560 590" role="img" aria-labelledby="title desc">
  <!-- Generated by assets/generate_fast_vs_ct_radar.py -->
  <title id="title">Fast vs Ct throughput radar chart (log scale, representative variants)</title>
  <desc id="desc">Log-scaled radar chart comparing representative fast and constant-time throughput for AES, CAST-128, DES, PRESENT, Camellia, Magma, Grasshopper, SM4, SEED, Twofish, and ZUC families.</desc>
  <style>
    .bg { fill: #fbf8f1; }
    .grid { fill: none; stroke: #c9c2b7; stroke-width: 1; }
    .axis { stroke: #a79d90; stroke-width: 1; }
    .label { fill: #342f29; font: 12px ui-sans-serif, -apple-system, BlinkMacSystemFont, "Segoe UI", sans-serif; }
    .small { fill: #6b6257; font: 11px ui-sans-serif, -apple-system, BlinkMacSystemFont, "Segoe UI", sans-serif; }
    .fast-fill { fill: #0f766e; fill-opacity: 0.20; stroke: #0f766e; stroke-width: 2; }
    .ct-fill { fill: #b45309; fill-opacity: 0.24; stroke: #b45309; stroke-width: 2; }
    .legend-fast { fill: #0f766e; }
    .legend-ct { fill: #b45309; }
  </style>

  <rect class="bg" x="0" y="0" width="560" height="590" rx="16" />

  <polygon class="grid" points="280.0,222.5 290.5,225.1 298.5,232.2 302.3,242.3 301.0,253.0 294.9,261.8 285.4,266.8 274.6,266.8 265.1,261.8 259.0,253.0 257.7,242.3 261.5,232.2 269.5,225.1" />
  <polygon class="grid" points="280.0,200.0 300.9,205.2 317.0,219.4 324.7,239.6 322.1,261.0 309.8,278.7 290.8,288.7 269.2,288.7 250.2,278.7 237.9,261.0 235.3,239.6 243.0,219.4 259.1,205.2" />
  <polygon class="grid" points="280.0,177.5 311.4,185.2 335.6,206.7 347.0,236.9 343.1,268.9 324.8,295.5 296.2,310.5 263.8,310.5 235.2,295.5 216.9,268.9 213.0,236.9 224.4,206.7 248.6,185.2" />
  <polygon class="grid" points="280.0,155.0 321.8,165.3 354.1,193.9 369.3,234.2 364.2,276.9 339.7,312.4 301.5,332.4 258.5,332.4 220.3,312.4 195.8,276.9 190.7,234.2 205.9,193.9 238.2,165.3" />
  <polygon class="grid" points="280.0,132.5 332.3,145.4 372.6,181.1 391.7,231.4 385.2,284.9 354.6,329.2 306.9,354.2 253.1,354.2 205.4,329.2 174.8,284.9 168.3,231.4 187.4,181.1 227.7,145.4" />
  <polygon class="grid" points="280.0,110.0 342.7,125.5 391.1,168.3 414.0,228.7 406.2,292.9 369.5,346.0 312.3,376.1 247.7,376.1 190.5,346.0 153.8,292.9 146.0,228.7 168.9,168.3 217.3,125.5" />
  <polygon class="grid" points="280.0,87.5 353.2,105.5 409.6,155.5 436.4,226.0 427.3,300.9 384.4,362.9 317.7,397.9 242.3,397.9 175.6,362.9 132.7,300.9 123.6,226.0 150.4,155.5 206.8,105.5" />
  <polygon class="grid" points="280.0,65.0 363.7,85.6 428.1,142.7 458.7,223.3 448.3,308.8 399.4,379.7 323.1,419.8 236.9,419.8 160.6,379.7 111.7,308.8 101.3,223.3 131.9,142.7 196.3,85.6" />

  <line class="axis" x1="280" y1="245" x2="280.0" y2="65.0" />
  <line class="axis" x1="280" y1="245" x2="363.7" y2="85.6" />
  <line class="axis" x1="280" y1="245" x2="428.1" y2="142.7" />
  <line class="axis" x1="280" y1="245" x2="458.7" y2="223.3" />
  <line class="axis" x1="280" y1="245" x2="448.3" y2="308.8" />
  <line class="axis" x1="280" y1="245" x2="399.4" y2="379.7" />
  <line class="axis" x1="280" y1="245" x2="323.1" y2="419.8" />
  <line class="axis" x1="280" y1="245" x2="236.9" y2="419.8" />
  <line class="axis" x1="280" y1="245" x2="160.6" y2="379.7" />
  <line class="axis" x1="280" y1="245" x2="111.7" y2="308.8" />
  <line class="axis" x1="280" y1="245" x2="101.3" y2="223.3" />
  <line class="axis" x1="280" y1="245" x2="131.9" y2="142.7" />
  <line class="axis" x1="280" y1="245" x2="196.3" y2="85.6" />

  <polygon class="fast-fill" points="280.0,85.8 351.0,109.7 401.4,161.2 411.5,229.0 370.4,279.3 304.9,273.1 307.0,354.4 258.9,330.7 239.6,290.6 177.2,284.0 187.4,233.8 247.3,222.4 205.7,103.5" />
  <polygon class="ct-fill" points="280.0,155.2 318.9,170.9 344.1,200.7 280.0,245.0 301.4,253.1 280.5,245.6 283.5,259.3 270.0,285.4 279.5,245.6 263.9,251.1 276.2,244.5 280.0,245.0 250.6,189.1" />

  <text class="small" x="316" y="224">8</text>
  <text class="small" x="316" y="201">16</text>
  <text class="small" x="316" y="178">32</text>
  <text class="small" x="316" y="156">64</text>
  <text class="small" x="316" y="134">128</text>
  <text class="small" x="316" y="111">256</text>
  <text class="small" x="316" y="88">512</text>
  <text class="small" x="316" y="66">1024</text>

  <text class="label" x="280.0" y="41.0" text-anchor="middle">AES-128</text>
  <text class="label" x="374.8" y="64.4" text-anchor="start">AES-192</text>
  <text class="label" x="447.9" y="133.1" text-anchor="start">AES-256</text>
  <text class="label" x="482.5" y="224.4" text-anchor="start">CAST-128</text>
  <text class="label" x="470.7" y="321.3" text-anchor="start">DES</text>
  <text class="label" x="415.3" y="409.7" text-anchor="start">PRESENT-80</text>
  <text class="label" x="328.8" y="455.1" text-anchor="start">Camellia-128</text>
  <text class="label" x="231.2" y="455.1" text-anchor="end">Magma</text>
  <text class="label" x="144.7" y="409.7" text-anchor="end">Grasshopper</text>
  <text class="label" x="89.3" y="321.3" text-anchor="end">SM4</text>
  <text class="label" x="77.5" y="224.4" text-anchor="end">SEED-128</text>
  <text class="label" x="112.1" y="133.1" text-anchor="end">Twofish-256</text>
  <text class="label" x="185.2" y="64.4" text-anchor="end">ZUC</text>

  <text class="label" x="20" y="538">Fast vs Ct Throughput (log scale, representative variants)</text>
  <text class="small" x="20" y="556">Radial scale is logarithmic, spanning 4 MiB/s to 1024 MiB/s</text>

  <rect x="372" y="528" width="14" height="14" class="legend-fast" rx="2" />
  <text class="small" x="392" y="539">Fast path</text>
  <rect x="372" y="550" width="14" height="14" class="legend-ct" rx="2" />
  <text class="small" x="392" y="561">Ct path</text>
</svg>
