<svg xmlns="http://www.w3.org/2000/svg" viewBox="0 0 500 460" role="img" aria-labelledby="title desc">
  <title id="title">Fast vs Ct throughput radar chart (log scale)</title>
  <desc id="desc">Log-scaled radar chart comparing fast and constant-time throughput for AES, DES, Magma, Grasshopper, SM4, and ZUC families.</desc>
  <style>
    .bg { fill: #fbf8f1; }
    .grid { fill: none; stroke: #c9c2b7; stroke-width: 1; }
    .axis { stroke: #a79d90; stroke-width: 1; }
    .label { fill: #342f29; font: 12px ui-sans-serif, -apple-system, BlinkMacSystemFont, "Segoe UI", sans-serif; }
    .small { fill: #6b6257; font: 11px ui-sans-serif, -apple-system, BlinkMacSystemFont, "Segoe UI", sans-serif; }
    .fast-fill { fill: #0f766e; fill-opacity: 0.20; stroke: #0f766e; stroke-width: 2; }
    .ct-fill { fill: #b45309; fill-opacity: 0.24; stroke: #b45309; stroke-width: 2; }
    .legend-fast { fill: #0f766e; }
    .legend-ct { fill: #b45309; }
  </style>

  <rect class="bg" x="0" y="0" width="500" height="460" rx="16" />

  <text class="label" x="20" y="28">Fast vs Ct Throughput (log scale)</text>
  <text class="small" x="20" y="46">Radial scale is logarithmic, spanning 4 MiB/s to 560 MiB/s</text>

  <polygon class="grid" points="240.0,206.2 256.9,213.1 263.8,230.0 256.9,246.9 240.0,253.8 223.1,246.9 216.2,230.0 223.1,213.1" />
  <polygon class="grid" points="240.0,182.3 273.7,196.3 287.7,230.0 273.7,263.7 240.0,277.7 206.3,263.7 192.3,230.0 206.3,196.3" />
  <polygon class="grid" points="240.0,158.5 290.6,179.4 311.5,230.0 290.6,280.6 240.0,301.5 189.4,280.6 168.5,230.0 189.4,179.4" />
  <polygon class="grid" points="240.0,134.6 307.4,162.6 335.4,230.0 307.4,297.4 240.0,325.4 172.6,297.4 144.6,230.0 172.6,162.6" />
  <polygon class="grid" points="240.0,110.8 324.3,145.7 359.2,230.0 324.3,314.3 240.0,349.2 155.7,314.3 120.8,230.0 155.7,145.7" />
  <polygon class="grid" points="240.0,86.9 341.2,128.8 383.1,230.0 341.2,331.2 240.0,373.1 138.8,331.2 96.9,230.0 138.8,128.8" />
  <polygon class="grid" points="240.0,63.1 358.0,112.0 406.9,230.0 358.0,348.0 240.0,396.9 122.0,348.0 73.1,230.0 122.0,112.0" />

  <line class="axis" x1="240" y1="230" x2="240" y2="60" />
  <line class="axis" x1="240" y1="230" x2="360.2" y2="109.8" />
  <line class="axis" x1="240" y1="230" x2="410" y2="230" />
  <line class="axis" x1="240" y1="230" x2="360.2" y2="350.2" />
  <line class="axis" x1="240" y1="230" x2="240" y2="400" />
  <line class="axis" x1="240" y1="230" x2="119.8" y2="350.2" />
  <line class="axis" x1="240" y1="230" x2="70" y2="230" />
  <line class="axis" x1="240" y1="230" x2="119.8" y2="109.8" />

  <polygon class="fast-fill" points="240.0,61.1 354.6,115.4 396.2,230.0 313.2,303.2 240.0,324.3 194.4,275.6 122.2,230.0 120.2,110.2" />
  <polygon class="ct-fill" points="240.0,136.5 301.6,168.4 321.6,230.0 257.8,247.8 240.0,273.8 239.4,230.6 217.9,230.0 192.4,182.4" />

  <text class="small" x="247" y="208">8</text>
  <text class="small" x="247" y="184">16</text>
  <text class="small" x="247" y="160">32</text>
  <text class="small" x="247" y="136">64</text>
  <text class="small" x="247" y="112">128</text>
  <text class="small" x="247" y="88">256</text>
  <text class="small" x="247" y="64">512</text>

  <text class="label" x="240" y="36" text-anchor="middle">AES-128</text>
  <text class="label" x="384" y="93" text-anchor="start">AES-192</text>
  <text class="label" x="438" y="234" text-anchor="start">AES-256</text>
  <text class="label" x="384" y="374" text-anchor="start">DES</text>
  <text class="label" x="240" y="442" text-anchor="middle">Magma</text>
  <text class="label" x="96" y="374" text-anchor="end">Grasshopper</text>
  <text class="label" x="42" y="234" text-anchor="start">SM4</text>
  <text class="label" x="96" y="93" text-anchor="end">ZUC</text>

  <rect x="330" y="24" width="14" height="14" class="legend-fast" rx="2" />
  <text class="small" x="350" y="35">Fast path</text>
  <rect x="330" y="46" width="14" height="14" class="legend-ct" rx="2" />
  <text class="small" x="350" y="57">Ct path</text>
</svg>
