<svg xmlns="http://www.w3.org/2000/svg" viewBox="0 0 560 590" role="img" aria-labelledby="title desc">
  <!-- Generated by assets/generate_fast_vs_ct_radar.py -->
  <title id="title">Fast vs Ct throughput radar chart (log scale, representative variants)</title>
  <desc id="desc">Log-scaled radar chart comparing representative fast and constant-time throughput for AES, CAST-128, DES, PRESENT, Camellia, Magma, Grasshopper, SM4, SEED, Twofish, SNOW 3G, and ZUC families.</desc>
  <style>
    .bg { fill: #fbf8f1; }
    .grid { fill: none; stroke: #c9c2b7; stroke-width: 1; }
    .axis { stroke: #a79d90; stroke-width: 1; }
    .label { fill: #342f29; font: 12px ui-sans-serif, -apple-system, BlinkMacSystemFont, "Segoe UI", sans-serif; }
    .small { fill: #6b6257; font: 11px ui-sans-serif, -apple-system, BlinkMacSystemFont, "Segoe UI", sans-serif; }
    .fast-fill { fill: #0f766e; fill-opacity: 0.20; stroke: #0f766e; stroke-width: 2; }
    .ct-fill { fill: #b45309; fill-opacity: 0.24; stroke: #b45309; stroke-width: 2; }
    .legend-fast { fill: #0f766e; }
    .legend-ct { fill: #b45309; }
  </style>

  <rect class="bg" x="0" y="0" width="560" height="590" rx="16" />

  <polygon class="grid" points="280.0,222.5 289.8,224.7 297.6,231.0 301.9,240.0 301.9,250.0 297.6,259.0 289.8,265.3 280.0,267.5 270.2,265.3 262.4,259.0 258.1,250.0 258.1,240.0 262.4,231.0 270.2,224.7" />
  <polygon class="grid" points="280.0,200.0 299.5,204.5 315.2,216.9 323.9,235.0 323.9,255.0 315.2,273.1 299.5,285.5 280.0,290.0 260.5,285.5 244.8,273.1 236.1,255.0 236.1,235.0 244.8,216.9 260.5,204.5" />
  <polygon class="grid" points="280.0,177.5 309.3,184.2 332.8,202.9 345.8,230.0 345.8,260.0 332.8,287.1 309.3,305.8 280.0,312.5 250.7,305.8 227.2,287.1 214.2,260.0 214.2,230.0 227.2,202.9 250.7,184.2" />
  <polygon class="grid" points="280.0,155.0 319.0,163.9 350.4,188.9 367.7,225.0 367.7,265.0 350.4,301.1 319.0,326.1 280.0,335.0 241.0,326.1 209.6,301.1 192.3,265.0 192.3,225.0 209.6,188.9 241.0,163.9" />
  <polygon class="grid" points="280.0,132.5 328.8,143.6 368.0,174.9 389.7,220.0 389.7,270.0 368.0,315.1 328.8,346.4 280.0,357.5 231.2,346.4 192.0,315.1 170.3,270.0 170.3,220.0 192.0,174.9 231.2,143.6" />
  <polygon class="grid" points="280.0,110.0 338.6,123.4 385.5,160.8 411.6,215.0 411.6,275.0 385.5,329.2 338.6,366.6 280.0,380.0 221.4,366.6 174.5,329.2 148.4,275.0 148.4,215.0 174.5,160.8 221.4,123.4" />
  <polygon class="grid" points="280.0,87.5 348.3,103.1 403.1,146.8 433.6,210.0 433.6,280.0 403.1,343.2 348.3,386.9 280.0,402.5 211.7,386.9 156.9,343.2 126.4,280.0 126.4,210.0 156.9,146.8 211.7,103.1" />
  <polygon class="grid" points="280.0,65.0 358.1,82.8 420.7,132.8 455.5,204.9 455.5,285.1 420.7,357.2 358.1,407.2 280.0,425.0 201.9,407.2 139.3,357.2 104.5,285.1 104.5,204.9 139.3,132.8 201.9,82.8" />

  <line class="axis" x1="280" y1="245" x2="280.0" y2="65.0" />
  <line class="axis" x1="280" y1="245" x2="358.1" y2="82.8" />
  <line class="axis" x1="280" y1="245" x2="420.7" y2="132.8" />
  <line class="axis" x1="280" y1="245" x2="455.5" y2="204.9" />
  <line class="axis" x1="280" y1="245" x2="455.5" y2="285.1" />
  <line class="axis" x1="280" y1="245" x2="420.7" y2="357.2" />
  <line class="axis" x1="280" y1="245" x2="358.1" y2="407.2" />
  <line class="axis" x1="280" y1="245" x2="280.0" y2="425.0" />
  <line class="axis" x1="280" y1="245" x2="201.9" y2="407.2" />
  <line class="axis" x1="280" y1="245" x2="139.3" y2="357.2" />
  <line class="axis" x1="280" y1="245" x2="104.5" y2="285.1" />
  <line class="axis" x1="280" y1="245" x2="104.5" y2="204.9" />
  <line class="axis" x1="280" y1="245" x2="139.3" y2="132.8" />
  <line class="axis" x1="280" y1="245" x2="201.9" y2="82.8" />

  <polygon class="fast-fill" points="280.0,90.7 345.0,110.1 392.3,155.5 417.8,213.5 374.2,266.5 309.2,268.3 330.1,349.1 280.0,333.8 254.2,298.7 182.0,323.1 188.5,265.9 239.1,235.7 156.6,146.6 210.9,101.4" />
  <polygon class="ct-fill" points="280.0,156.2 315.9,170.4 340.7,196.6 280.0,245.0 301.0,249.8 280.0,245.0 286.3,258.1 280.0,286.6 279.6,245.9 266.2,256.0 275.3,246.1 280.0,245.0 237.0,210.7 252.6,188.1" />

  <text class="small" x="316" y="224">8</text>
  <text class="small" x="316" y="201">16</text>
  <text class="small" x="316" y="178">32</text>
  <text class="small" x="316" y="156">64</text>
  <text class="small" x="316" y="134">128</text>
  <text class="small" x="316" y="111">256</text>
  <text class="small" x="316" y="88">512</text>
  <text class="small" x="316" y="66">1024</text>

  <text class="label" x="280.0" y="41.0" text-anchor="middle">AES-128</text>
  <text class="label" x="368.5" y="61.2" text-anchor="start">AES-192</text>
  <text class="label" x="439.5" y="121.8" text-anchor="start">AES-256</text>
  <text class="label" x="478.9" y="203.6" text-anchor="start">CAST-128</text>
  <text class="label" x="478.9" y="294.4" text-anchor="start">DES</text>
  <text class="label" x="439.5" y="376.2" text-anchor="start">PRESENT-80</text>
  <text class="label" x="368.5" y="440.8" text-anchor="start">Camellia-128</text>
  <text class="label" x="280.0" y="461.0" text-anchor="middle">Magma</text>
  <text class="label" x="191.5" y="440.8" text-anchor="end">Grasshopper</text>
  <text class="label" x="120.5" y="376.2" text-anchor="end">SM4</text>
  <text class="label" x="81.1" y="294.4" text-anchor="end">SEED-128</text>
  <text class="label" x="81.1" y="203.6" text-anchor="end">Twofish-256</text>
  <text class="label" x="120.5" y="121.8" text-anchor="end">SNOW-3G</text>
  <text class="label" x="191.5" y="61.2" text-anchor="end">ZUC-128</text>

  <text class="label" x="20" y="538">Fast vs Ct Throughput (log scale, representative variants)</text>
  <text class="small" x="20" y="556">Radial scale is logarithmic, spanning 4 MiB/s to 1024 MiB/s</text>

  <rect x="372" y="528" width="14" height="14" class="legend-fast" rx="2" />
  <text class="small" x="392" y="539">Fast path</text>
  <rect x="372" y="550" width="14" height="14" class="legend-ct" rx="2" />
  <text class="small" x="392" y="561">Ct path</text>
</svg>
