<svg xmlns="http://www.w3.org/2000/svg" viewBox="0 0 520 590" role="img" aria-labelledby="title desc">
  <!-- Generated by assets/generate_fast_vs_ct_radar.py -->
  <title id="title">Fast vs Ct throughput radar chart (log scale, representative variants)</title>
  <desc id="desc">Log-scaled radar chart comparing representative fast and constant-time throughput for AES, DES, PRESENT, Camellia, Magma, Grasshopper, SM4, SEED, and ZUC families.</desc>
  <style>
    .bg { fill: #fbf8f1; }
    .grid { fill: none; stroke: #c9c2b7; stroke-width: 1; }
    .axis { stroke: #a79d90; stroke-width: 1; }
    .label { fill: #342f29; font: 12px ui-sans-serif, -apple-system, BlinkMacSystemFont, "Segoe UI", sans-serif; }
    .small { fill: #6b6257; font: 11px ui-sans-serif, -apple-system, BlinkMacSystemFont, "Segoe UI", sans-serif; }
    .fast-fill { fill: #0f766e; fill-opacity: 0.20; stroke: #0f766e; stroke-width: 2; }
    .ct-fill { fill: #b45309; fill-opacity: 0.24; stroke: #b45309; stroke-width: 2; }
    .legend-fast { fill: #0f766e; }
    .legend-ct { fill: #b45309; }
  </style>

  <rect class="bg" x="0" y="0" width="520" height="590" rx="16" />

  <polygon class="grid" points="250.0,222.5 262.2,226.1 270.5,235.7 272.3,248.2 267.0,259.7 256.3,266.6 243.7,266.6 233.0,259.7 227.7,248.2 229.5,235.7 237.8,226.1" />
  <polygon class="grid" points="250.0,200.0 274.3,207.1 290.9,226.3 294.5,251.4 284.0,274.5 262.7,288.2 237.3,288.2 216.0,274.5 205.5,251.4 209.1,226.3 225.7,207.1" />
  <polygon class="grid" points="250.0,177.5 286.5,188.2 311.4,217.0 316.8,254.6 301.0,289.2 269.0,309.8 231.0,309.8 199.0,289.2 183.2,254.6 188.6,217.0 213.5,188.2" />
  <polygon class="grid" points="250.0,155.0 298.7,169.3 331.9,207.6 339.1,257.8 318.0,303.9 275.4,331.4 224.6,331.4 182.0,303.9 160.9,257.8 168.1,207.6 201.3,169.3" />
  <polygon class="grid" points="250.0,132.5 310.8,150.4 352.3,198.3 361.4,261.0 335.0,318.7 281.7,352.9 218.3,352.9 165.0,318.7 138.6,261.0 147.7,198.3 189.2,150.4" />
  <polygon class="grid" points="250.0,110.0 323.0,131.4 372.8,188.9 383.6,264.2 352.0,333.4 288.0,374.5 212.0,374.5 148.0,333.4 116.4,264.2 127.2,188.9 177.0,131.4" />
  <polygon class="grid" points="250.0,87.5 335.2,112.5 393.3,179.6 405.9,267.4 369.0,348.1 294.4,396.1 205.6,396.1 131.0,348.1 94.1,267.4 106.7,179.6 164.8,112.5" />
  <polygon class="grid" points="250.0,65.0 347.3,93.6 413.7,170.2 428.2,270.6 386.0,362.9 300.7,417.7 199.3,417.7 114.0,362.9 71.8,270.6 86.3,170.2 152.7,93.6" />

  <line class="axis" x1="250" y1="245" x2="250.0" y2="65.0" />
  <line class="axis" x1="250" y1="245" x2="347.3" y2="93.6" />
  <line class="axis" x1="250" y1="245" x2="413.7" y2="170.2" />
  <line class="axis" x1="250" y1="245" x2="428.2" y2="270.6" />
  <line class="axis" x1="250" y1="245" x2="386.0" y2="362.9" />
  <line class="axis" x1="250" y1="245" x2="300.7" y2="417.7" />
  <line class="axis" x1="250" y1="245" x2="199.3" y2="417.7" />
  <line class="axis" x1="250" y1="245" x2="114.0" y2="362.9" />
  <line class="axis" x1="250" y1="245" x2="71.8" y2="270.6" />
  <line class="axis" x1="250" y1="245" x2="86.3" y2="170.2" />
  <line class="axis" x1="250" y1="245" x2="152.7" y2="93.6" />

  <polygon class="fast-fill" points="250.0,85.6 332.7,116.4 384.1,183.8 346.7,258.9 277.8,269.1 281.2,351.4 224.9,330.4 204.0,284.9 140.0,260.8 166.0,206.7 163.6,110.5" />
  <polygon class="ct-fill" points="250.0,156.8 294.5,175.8 320.1,213.0 273.5,248.4 250.0,245.0 253.4,256.6 238.3,284.7 249.4,245.5 229.4,248.0 246.5,243.4 215.7,191.6" />

  <text class="small" x="286" y="224">8</text>
  <text class="small" x="286" y="201">16</text>
  <text class="small" x="286" y="178">32</text>
  <text class="small" x="286" y="156">64</text>
  <text class="small" x="286" y="134">128</text>
  <text class="small" x="286" y="111">256</text>
  <text class="small" x="286" y="88">512</text>
  <text class="small" x="286" y="66">1024</text>

  <text class="label" x="250.0" y="41.0" text-anchor="middle">AES-128</text>
  <text class="label" x="360.3" y="73.4" text-anchor="start">AES-192</text>
  <text class="label" x="435.6" y="164.3" text-anchor="start">AES-256</text>
  <text class="label" x="451.9" y="278.0" text-anchor="start">DES</text>
  <text class="label" x="404.2" y="382.6" text-anchor="start">PRESENT-80</text>
  <text class="label" x="307.5" y="452.7" text-anchor="start">Camellia-128</text>
  <text class="label" x="192.5" y="452.7" text-anchor="end">Magma</text>
  <text class="label" x="95.8" y="382.6" text-anchor="end">Grasshopper</text>
  <text class="label" x="48.1" y="278.0" text-anchor="end">SM4</text>
  <text class="label" x="64.4" y="164.3" text-anchor="end">SEED-128</text>
  <text class="label" x="139.7" y="73.4" text-anchor="end">ZUC</text>

  <text class="label" x="20" y="538">Fast vs Ct Throughput (log scale, representative variants)</text>
  <text class="small" x="20" y="556">Radial scale is logarithmic, spanning 4 MiB/s to 1024 MiB/s</text>

  <rect x="332" y="528" width="14" height="14" class="legend-fast" rx="2" />
  <text class="small" x="352" y="539">Fast path</text>
  <rect x="332" y="550" width="14" height="14" class="legend-ct" rx="2" />
  <text class="small" x="352" y="561">Ct path</text>
</svg>
