<svg xmlns="http://www.w3.org/2000/svg" viewBox="0 0 560 630" role="img" aria-labelledby="title desc">
  <!-- Generated by assets/generate_public_key_radar.py -->
  <title id="title">Public-key encrypt/decrypt radar chart</title>
  <desc id="desc">Log-scaled radar chart comparing 1024-bit public-key encryption and decryption throughput across RSA, ElGamal, Paillier, Cocks, Rabin, and Schmidt-Samoa.</desc>
  <style>
    .bg { fill: #fbf8f1; }
    .grid { fill: none; stroke: #c9c2b7; stroke-width: 1; }
    .axis { stroke: #a79d90; stroke-width: 1; }
    .label { fill: #342f29; font: 12px ui-sans-serif, -apple-system, BlinkMacSystemFont, "Segoe UI", sans-serif; }
    .small { fill: #6b6257; font: 11px ui-sans-serif, -apple-system, BlinkMacSystemFont, "Segoe UI", sans-serif; }
    .enc-fill { fill: #0f766e; fill-opacity: 0.18; stroke: #0f766e; stroke-width: 2; }
    .dec-fill { fill: #1d4ed8; fill-opacity: 0.18; stroke: #1d4ed8; stroke-width: 2; }
    .legend-enc { fill: #0f766e; }
    .legend-dec { fill: #1d4ed8; }
  </style>

  <rect class="bg" x="0" y="0" width="560" height="630" rx="16" />

  <polygon class="grid" points="280.0,215.0 306.0,230.0 306.0,260.0 280.0,275.0 254.0,260.0 254.0,230.0" />
  <polygon class="grid" points="280.0,185.0 332.0,215.0 332.0,275.0 280.0,305.0 228.0,275.0 228.0,215.0" />
  <polygon class="grid" points="280.0,155.0 357.9,200.0 357.9,290.0 280.0,335.0 202.1,290.0 202.1,200.0" />
  <polygon class="grid" points="280.0,125.0 383.9,185.0 383.9,305.0 280.0,365.0 176.1,305.0 176.1,185.0" />
  <polygon class="grid" points="280.0,95.0 409.9,170.0 409.9,320.0 280.0,395.0 150.1,320.0 150.1,170.0" />
  <polygon class="grid" points="280.0,65.0 435.9,155.0 435.9,335.0 280.0,425.0 124.1,335.0 124.1,155.0" />

  <line class="axis" x1="280" y1="245" x2="280.0" y2="65.0" />
  <line class="axis" x1="280" y1="245" x2="435.9" y2="155.0" />
  <line class="axis" x1="280" y1="245" x2="435.9" y2="335.0" />
  <line class="axis" x1="280" y1="245" x2="280.0" y2="425.0" />
  <line class="axis" x1="280" y1="245" x2="124.1" y2="335.0" />
  <line class="axis" x1="280" y1="245" x2="124.1" y2="155.0" />

  <polygon class="enc-fill" points="280.0,88.9 366.1,195.3 291.5,251.6 280.0,325.4 128.4,332.5 209.3,204.2" />
  <polygon class="dec-fill" points="280.0,174.8 351.6,203.7 320.3,268.3 280.0,379.3 227.1,275.6 176.7,185.3" />

  <text class="small" x="314" y="216">100</text>
  <text class="small" x="314" y="186">300</text>
  <text class="small" x="314" y="156">1000</text>
  <text class="small" x="314" y="126">3000</text>
  <text class="small" x="314" y="96">10000</text>
  <text class="small" x="314" y="66">30000</text>

  <text class="label" x="280.0" y="41.0" text-anchor="middle">RSA</text>
  <text class="label" x="456.7" y="147.0" text-anchor="start">ElGamal</text>
  <text class="label" x="456.7" y="351.0" text-anchor="start">Paillier</text>
  <text class="label" x="280.0" y="461.0" text-anchor="middle">Cocks</text>
  <text class="label" x="103.3" y="351.0" text-anchor="end">Rabin</text>
  <text class="label" x="103.3" y="147.0" text-anchor="end">Schmidt-Samoa</text>

  <text class="label" x="20" y="548">Public-key Encrypt/Decrypt Throughput (1024-bit, log scale)</text>
  <text class="small" x="20" y="566">Radial scale is operations/second (higher is faster), spanning 100 to 30,000</text>

  <rect x="20" y="586" width="14" height="14" class="legend-enc" rx="2" />
  <text class="small" x="40" y="597">Encrypt</text>
  <rect x="108" y="586" width="14" height="14" class="legend-dec" rx="2" />
  <text class="small" x="128" y="597">Decrypt</text>
</svg>
