<svg xmlns="http://www.w3.org/2000/svg" width="640" height="640" viewBox="0 0 640 640" role="img" aria-labelledby="title desc">
  <!-- Generated by assets/generate_pk_platform_radar.py -->
  <title id="title">Public-key throughput: M1 Max vs Xeon 6740E</title>
  <desc id="desc">Log-scaled radar chart comparing representative public-key throughput (ops/sec) for Apple M1 Max and Intel Xeon 6740E.</desc>
  <style>
    .bg { fill: #fbf8f1; }
    .grid { fill: none; stroke: #c9c2b7; stroke-width: 1; }
    .axis { stroke: #a79d90; stroke-width: 1; }
    .label { fill: #342f29; font: 12px ui-sans-serif, -apple-system, BlinkMacSystemFont, "Segoe UI", sans-serif; }
    .small { fill: #6b6257; font: 11px ui-sans-serif, -apple-system, BlinkMacSystemFont, "Segoe UI", sans-serif; }
    .m1-fill { fill: #0f766e; fill-opacity: 0.18; stroke: #0f766e; stroke-width: 2; }
    .xeon-fill { fill: #1d4ed8; fill-opacity: 0.18; stroke: #1d4ed8; stroke-width: 2; }
  </style>

  <rect class="bg" x="0" y="0" width="640" height="640" rx="16" />

  <polygon class="grid" points="320.0,236.0 329.5,238.5 336.5,245.5 339.0,255.0 336.5,264.5 329.5,271.5 320.0,274.0 310.5,271.5 303.5,264.5 301.0,255.0 303.5,245.5 310.5,238.5" />
  <polygon class="grid" points="320.0,217.0 339.0,222.1 352.9,236.0 358.0,255.0 352.9,274.0 339.0,287.9 320.0,293.0 301.0,287.9 287.1,274.0 282.0,255.0 287.1,236.0 301.0,222.1" />
  <polygon class="grid" points="320.0,198.0 348.5,205.6 369.4,226.5 377.0,255.0 369.4,283.5 348.5,304.4 320.0,312.0 291.5,304.4 270.6,283.5 263.0,255.0 270.6,226.5 291.5,205.6" />
  <polygon class="grid" points="320.0,179.0 358.0,189.2 385.8,217.0 396.0,255.0 385.8,293.0 358.0,320.8 320.0,331.0 282.0,320.8 254.2,293.0 244.0,255.0 254.2,217.0 282.0,189.2" />
  <polygon class="grid" points="320.0,160.0 367.5,172.7 402.3,207.5 415.0,255.0 402.3,302.5 367.5,337.3 320.0,350.0 272.5,337.3 237.7,302.5 225.0,255.0 237.7,207.5 272.5,172.7" />
  <polygon class="grid" points="320.0,141.0 377.0,156.3 418.7,198.0 434.0,255.0 418.7,312.0 377.0,353.7 320.0,369.0 263.0,353.7 221.3,312.0 206.0,255.0 221.3,198.0 263.0,156.3" />
  <polygon class="grid" points="320.0,122.0 386.5,139.8 435.2,188.5 453.0,255.0 435.2,321.5 386.5,370.2 320.0,388.0 253.5,370.2 204.8,321.5 187.0,255.0 204.8,188.5 253.5,139.8" />
  <polygon class="grid" points="320.0,103.0 396.0,123.4 451.6,179.0 472.0,255.0 451.6,331.0 396.0,386.6 320.0,407.0 244.0,386.6 188.4,331.0 168.0,255.0 188.4,179.0 244.0,123.4" />
  <polygon class="grid" points="320.0,84.0 405.5,106.9 468.1,169.5 491.0,255.0 468.1,340.5 405.5,403.1 320.0,426.0 234.5,403.1 171.9,340.5 149.0,255.0 171.9,169.5 234.5,106.9" />
  <polygon class="grid" points="320.0,65.0 415.0,90.5 484.5,160.0 510.0,255.0 484.5,350.0 415.0,419.5 320.0,445.0 225.0,419.5 155.5,350.0 130.0,255.0 155.5,160.0 225.0,90.5" />

  <line class="axis" x1="320" y1="255" x2="320.0" y2="65.0" />
  <line class="axis" x1="320" y1="255" x2="415.0" y2="90.5" />
  <line class="axis" x1="320" y1="255" x2="484.5" y2="160.0" />
  <line class="axis" x1="320" y1="255" x2="510.0" y2="255.0" />
  <line class="axis" x1="320" y1="255" x2="484.5" y2="350.0" />
  <line class="axis" x1="320" y1="255" x2="415.0" y2="419.5" />
  <line class="axis" x1="320" y1="255" x2="320.0" y2="445.0" />
  <line class="axis" x1="320" y1="255" x2="225.0" y2="419.5" />
  <line class="axis" x1="320" y1="255" x2="155.5" y2="350.0" />
  <line class="axis" x1="320" y1="255" x2="130.0" y2="255.0" />
  <line class="axis" x1="320" y1="255" x2="155.5" y2="160.0" />
  <line class="axis" x1="320" y1="255" x2="225.0" y2="90.5" />

  <polygon class="m1-fill" points="320.0,76.2 378.3,154.0 376.4,222.4 379.8,255.0 355.0,275.2 350.7,308.2 320.0,296.5 288.6,309.4 250.2,295.3 273.1,255.0 247.7,213.2 285.4,195.1" />
  <polygon class="xeon-fill" points="320.0,86.6 355.0,194.3 328.1,250.3 368.6,255.0 345.1,269.5 344.4,297.3 320.0,285.3 294.0,300.0 259.4,290.0 287.5,255.0 259.9,220.3 291.9,206.3" />

  <text class="small" x="366" y="237">64</text>
  <text class="small" x="366" y="218">128</text>
  <text class="small" x="366" y="199">256</text>
  <text class="small" x="366" y="180">512</text>
  <text class="small" x="366" y="161">1024</text>
  <text class="small" x="366" y="142">2048</text>
  <text class="small" x="366" y="123">4096</text>
  <text class="small" x="366" y="104">8192</text>
  <text class="small" x="366" y="85">16384</text>
  <text class="small" x="366" y="66">32768</text>

  <text class="label" x="320.0" y="39.0" text-anchor="middle">RSA-1024 Encrypt</text>
  <text class="label" x="428.0" y="67.9" text-anchor="start">RSA-1024 Decrypt</text>
  <text class="label" x="507.1" y="151.0" text-anchor="start">RSA-2048 Sign</text>
  <text class="label" x="536.0" y="259.0" text-anchor="start">ECDSA Sign</text>
  <text class="label" x="507.1" y="367.0" text-anchor="start">ECDSA Verify</text>
  <text class="label" x="428.0" y="454.1" text-anchor="start">ECDH Agree</text>
  <text class="label" x="320.0" y="483.0" text-anchor="middle">ECIES Encrypt</text>
  <text class="label" x="212.0" y="454.1" text-anchor="end">ECIES Decrypt</text>
  <text class="label" x="132.9" y="367.0" text-anchor="end">Ed25519 Sign</text>
  <text class="label" x="104.0" y="259.0" text-anchor="end">Ed25519 Verify</text>
  <text class="label" x="132.9" y="151.0" text-anchor="end">Edwards DH Agree</text>
  <text class="label" x="212.0" y="67.9" text-anchor="end">Edwards ElGamal Dec</text>

  <text class="label" x="20" y="578">Public-key Throughput Comparison (ops/sec, log scale)</text>
  <text class="small" x="20" y="596">M1 Max (wigner.local) vs Xeon 6740E (ssh.soe.ucsc.edu)</text>
  <rect x="424" y="566" width="14" height="14" fill="#0f766e" rx="2" />
  <text class="small" x="444" y="577">M1 Max</text>
  <rect x="424" y="588" width="14" height="14" fill="#1d4ed8" rx="2" />
  <text class="small" x="444" y="599">Xeon 6740E</text>
</svg>
