<svg xmlns="http://www.w3.org/2000/svg" viewBox="0 0 720 760" width="720" height="760" font-family="Inter, system-ui, sans-serif"><rect width="720" height="760" fill="#fbf8f1"/><text x="360.0" y="36" text-anchor="middle" font-size="20" fill="#342f29" font-weight="600">Public-key ops/sec — RSA / DSA / EC</text><text x="360.0" y="58" text-anchor="middle" font-size="13" fill="#6b6257">log₂ radial axis (ops/sec)</text><polygon points="360.0,295.0 360.0,295.0 360.0,295.0 360.0,295.0 360.0,295.0 360.0,295.0 360.0,295.0 360.0,295.0 360.0,295.0 360.0,295.0 360.0,295.0 360.0,295.0" fill="none" stroke="#c9c2b7" stroke-width="0.7" stroke-dasharray="2,3"/><polygon points="360.0,276.7 369.2,279.1 375.9,285.8 378.3,295.0 375.9,304.2 369.2,310.9 360.0,313.3 350.8,310.9 344.1,304.2 341.7,295.0 344.1,285.8 350.8,279.1" fill="none" stroke="#c9c2b7" stroke-width="0.7" stroke-dasharray="2,3"/><polygon points="360.0,258.3 378.3,263.2 391.8,276.7 396.7,295.0 391.8,313.3 378.3,326.8 360.0,331.7 341.7,326.8 328.2,313.3 323.3,295.0 328.2,276.7 341.7,263.2" fill="none" stroke="#c9c2b7" stroke-width="0.7" stroke-dasharray="2,3"/><polygon points="360.0,240.0 387.5,247.4 407.6,267.5 415.0,295.0 407.6,322.5 387.5,342.6 360.0,350.0 332.5,342.6 312.4,322.5 305.0,295.0 312.4,267.5 332.5,247.4" fill="none" stroke="#c9c2b7" stroke-width="0.7" stroke-dasharray="2,3"/><polygon points="360.0,221.7 396.7,231.5 423.5,258.3 433.3,295.0 423.5,331.7 396.7,358.5 360.0,368.3 323.3,358.5 296.5,331.7 286.7,295.0 296.5,258.3 323.3,231.5" fill="none" stroke="#c9c2b7" stroke-width="0.7" stroke-dasharray="2,3"/><polygon points="360.0,203.3 405.8,215.6 439.4,249.2 451.7,295.0 439.4,340.8 405.8,374.4 360.0,386.7 314.2,374.4 280.6,340.8 268.3,295.0 280.6,249.2 314.2,215.6" fill="none" stroke="#c9c2b7" stroke-width="0.7" stroke-dasharray="2,3"/><polygon points="360.0,185.0 415.0,199.7 455.3,240.0 470.0,295.0 455.3,350.0 415.0,390.3 360.0,405.0 305.0,390.3 264.7,350.0 250.0,295.0 264.7,240.0 305.0,199.7" fill="none" stroke="#c9c2b7" stroke-width="0.7" stroke-dasharray="2,3"/><polygon points="360.0,166.7 424.2,183.9 471.1,230.8 488.3,295.0 471.1,359.2 424.2,406.1 360.0,423.3 295.8,406.1 248.9,359.2 231.7,295.0 248.9,230.8 295.8,183.9" fill="none" stroke="#c9c2b7" stroke-width="0.7" stroke-dasharray="2,3"/><polygon points="360.0,148.3 433.3,168.0 487.0,221.7 506.7,295.0 487.0,368.3 433.3,422.0 360.0,441.7 286.7,422.0 233.0,368.3 213.3,295.0 233.0,221.7 286.7,168.0" fill="none" stroke="#c9c2b7" stroke-width="0.7" stroke-dasharray="2,3"/><polygon points="360.0,130.0 442.5,152.1 502.9,212.5 525.0,295.0 502.9,377.5 442.5,437.9 360.0,460.0 277.5,437.9 217.1,377.5 195.0,295.0 217.1,212.5 277.5,152.1" fill="none" stroke="#c9c2b7" stroke-width="0.7" stroke-dasharray="2,3"/><polygon points="360.0,111.7 451.7,136.2 518.8,203.3 543.3,295.0 518.8,386.7 451.7,453.8 360.0,478.3 268.3,453.8 201.2,386.7 176.7,295.0 201.2,203.3 268.3,136.2" fill="none" stroke="#c9c2b7" stroke-width="0.7" stroke-dasharray="2,3"/><polygon points="360.0,93.3 460.8,120.4 534.6,194.2 561.7,295.0 534.6,395.8 460.8,469.6 360.0,496.7 259.2,469.6 185.4,395.8 158.3,295.0 185.4,194.2 259.2,120.4" fill="none" stroke="#c9c2b7" stroke-width="0.7" stroke-dasharray="2,3"/><polygon points="360.0,75.0 470.0,104.5 550.5,185.0 580.0,295.0 550.5,405.0 470.0,485.5 360.0,515.0 250.0,485.5 169.5,405.0 140.0,295.0 169.5,185.0 250.0,104.5" fill="none" stroke="#c9c2b7" stroke-width="0.7" stroke-dasharray="2,3"/><line x1="360.0" y1="295.0" x2="360.0" y2="75.0" stroke="#a79d90" stroke-width="0.6"/><line x1="360.0" y1="295.0" x2="470.0" y2="104.5" stroke="#a79d90" stroke-width="0.6"/><line x1="360.0" y1="295.0" x2="550.5" y2="185.0" stroke="#a79d90" stroke-width="0.6"/><line x1="360.0" y1="295.0" x2="580.0" y2="295.0" stroke="#a79d90" stroke-width="0.6"/><line x1="360.0" y1="295.0" x2="550.5" y2="405.0" stroke="#a79d90" stroke-width="0.6"/><line x1="360.0" y1="295.0" x2="470.0" y2="485.5" stroke="#a79d90" stroke-width="0.6"/><line x1="360.0" y1="295.0" x2="360.0" y2="515.0" stroke="#a79d90" stroke-width="0.6"/><line x1="360.0" y1="295.0" x2="250.0" y2="485.5" stroke="#a79d90" stroke-width="0.6"/><line x1="360.0" y1="295.0" x2="169.5" y2="405.0" stroke="#a79d90" stroke-width="0.6"/><line x1="360.0" y1="295.0" x2="140.0" y2="295.0" stroke="#a79d90" stroke-width="0.6"/><line x1="360.0" y1="295.0" x2="169.5" y2="185.0" stroke="#a79d90" stroke-width="0.6"/><line x1="360.0" y1="295.0" x2="250.0" y2="104.5" stroke="#a79d90" stroke-width="0.6"/><text x="360.0" y="292.0" font-size="9" fill="#6b6257" text-anchor="middle">8</text><text x="360.0" y="273.7" font-size="9" fill="#6b6257" text-anchor="middle">16</text><text x="360.0" y="255.3" font-size="9" fill="#6b6257" text-anchor="middle">32</text><text x="360.0" y="237.0" font-size="9" fill="#6b6257" text-anchor="middle">64</text><text x="360.0" y="218.7" font-size="9" fill="#6b6257" text-anchor="middle">128</text><text x="360.0" y="200.3" font-size="9" fill="#6b6257" text-anchor="middle">256</text><text x="360.0" y="182.0" font-size="9" fill="#6b6257" text-anchor="middle">512</text><text x="360.0" y="163.7" font-size="9" fill="#6b6257" text-anchor="middle">1024</text><text x="360.0" y="145.3" font-size="9" fill="#6b6257" text-anchor="middle">2048</text><text x="360.0" y="127.0" font-size="9" fill="#6b6257" text-anchor="middle">4096</text><text x="360.0" y="108.7" font-size="9" fill="#6b6257" text-anchor="middle">8192</text><text x="360.0" y="90.3" font-size="9" fill="#6b6257" text-anchor="middle">16384</text><text x="360.0" y="72.0" font-size="9" fill="#6b6257" text-anchor="middle">32768</text><polygon points="360.0,182.6 463.6,115.6 386.6,279.7 485.0,295.0 452.3,348.3 422.7,403.7 360.0,506.3 300.9,397.4 187.7,394.5 205.2,295.0 206.1,206.1 279.3,155.2" fill="#0f766e" fill-opacity="0.10" stroke="#0f766e" stroke-width="2.0" stroke-linejoin="round"/><circle cx="360.0" cy="182.6" r="3.0" fill="#0f766e"/><circle cx="463.6" cy="115.6" r="3.0" fill="#0f766e"/><circle cx="386.6" cy="279.7" r="3.0" fill="#0f766e"/><circle cx="485.0" cy="295.0" r="3.0" fill="#0f766e"/><circle cx="452.3" cy="348.3" r="3.0" fill="#0f766e"/><circle cx="422.7" cy="403.7" r="3.0" fill="#0f766e"/><circle cx="360.0" cy="506.3" r="3.0" fill="#0f766e"/><circle cx="300.9" cy="397.4" r="3.0" fill="#0f766e"/><circle cx="187.7" cy="394.5" r="3.0" fill="#0f766e"/><circle cx="205.2" cy="295.0" r="3.0" fill="#0f766e"/><circle cx="206.1" cy="206.1" r="3.0" fill="#0f766e"/><circle cx="279.3" cy="155.2" r="3.0" fill="#0f766e"/><polygon points="360.0,180.8 463.0,116.5 385.6,280.2 487.7,295.0 454.7,349.7 424.2,406.2 360.0,508.8 297.9,402.6 187.8,394.4 209.5,295.0 205.7,205.9 278.8,154.3" fill="#1d4ed8" fill-opacity="0.10" stroke="#1d4ed8" stroke-width="2.0" stroke-linejoin="round"/><circle cx="360.0" cy="180.8" r="3.0" fill="#1d4ed8"/><circle cx="463.0" cy="116.5" r="3.0" fill="#1d4ed8"/><circle cx="385.6" cy="280.2" r="3.0" fill="#1d4ed8"/><circle cx="487.7" cy="295.0" r="3.0" fill="#1d4ed8"/><circle cx="454.7" cy="349.7" r="3.0" fill="#1d4ed8"/><circle cx="424.2" cy="406.2" r="3.0" fill="#1d4ed8"/><circle cx="360.0" cy="508.8" r="3.0" fill="#1d4ed8"/><circle cx="297.9" cy="402.6" r="3.0" fill="#1d4ed8"/><circle cx="187.8" cy="394.4" r="3.0" fill="#1d4ed8"/><circle cx="209.5" cy="295.0" r="3.0" fill="#1d4ed8"/><circle cx="205.7" cy="205.9" r="3.0" fill="#1d4ed8"/><circle cx="278.8" cy="154.3" r="3.0" fill="#1d4ed8"/><polygon points="360.0,200.9 453.3,133.4 370.8,288.8 477.5,295.0 445.8,344.5 418.8,396.9 360.0,480.3 305.3,389.8 219.8,375.9 234.2,295.0 221.8,215.2 288.7,171.5" fill="#b91c1c" fill-opacity="0.10" stroke="#b91c1c" stroke-width="2.0" stroke-linejoin="round"/><circle cx="360.0" cy="200.9" r="3.0" fill="#b91c1c"/><circle cx="453.3" cy="133.4" r="3.0" fill="#b91c1c"/><circle cx="370.8" cy="288.8" r="3.0" fill="#b91c1c"/><circle cx="477.5" cy="295.0" r="3.0" fill="#b91c1c"/><circle cx="445.8" cy="344.5" r="3.0" fill="#b91c1c"/><circle cx="418.8" cy="396.9" r="3.0" fill="#b91c1c"/><circle cx="360.0" cy="480.3" r="3.0" fill="#b91c1c"/><circle cx="305.3" cy="389.8" r="3.0" fill="#b91c1c"/><circle cx="219.8" cy="375.9" r="3.0" fill="#b91c1c"/><circle cx="234.2" cy="295.0" r="3.0" fill="#b91c1c"/><circle cx="221.8" cy="215.2" r="3.0" fill="#b91c1c"/><circle cx="288.7" cy="171.5" r="3.0" fill="#b91c1c"/><text x="360.0" y="53.0" font-size="12" fill="#342f29" text-anchor="middle">RSA-2048 sign</text><text x="481.0" y="85.4" font-size="12" fill="#342f29" text-anchor="start">RSA-2048 verify</text><text x="569.6" y="178.0" font-size="12" fill="#342f29" text-anchor="start">RSA-1024 keygen</text><text x="602.0" y="299.0" font-size="12" fill="#342f29" text-anchor="start">ECDSA sign</text><text x="569.6" y="420.0" font-size="12" fill="#342f29" text-anchor="start">ECDSA verify</text><text x="481.0" y="516.6" font-size="12" fill="#342f29" text-anchor="start">ECDH agree</text><text x="360.0" y="549.0" font-size="12" fill="#342f29" text-anchor="middle">Ed25519 sign</text><text x="239.0" y="516.6" font-size="12" fill="#342f29" text-anchor="end">Ed25519 verify</text><text x="150.4" y="420.0" font-size="12" fill="#342f29" text-anchor="end">X25519 agree</text><text x="118.0" y="299.0" font-size="12" fill="#342f29" text-anchor="end">X448 agree</text><text x="150.4" y="178.0" font-size="12" fill="#342f29" text-anchor="end">DSA-1024 sign</text><text x="239.0" y="85.4" font-size="12" fill="#342f29" text-anchor="end">DSA-1024 verify</text><rect x="40" y="690" width="14" height="14" fill="#0f766e" fill-opacity="0.30" stroke="#0f766e" stroke-width="1.5"/><text x="62" y="701" font-size="12" fill="#342f29">EPYC 7452</text><rect x="40" y="708" width="14" height="14" fill="#1d4ed8" fill-opacity="0.30" stroke="#1d4ed8" stroke-width="1.5"/><text x="62" y="719" font-size="12" fill="#342f29">i5-8259U</text><rect x="40" y="726" width="14" height="14" fill="#b91c1c" fill-opacity="0.30" stroke="#b91c1c" stroke-width="1.5"/><text x="62" y="737" font-size="12" fill="#342f29">Cortex-A76</text></svg>