<svg xmlns="http://www.w3.org/2000/svg" viewBox="0 0 720 760" width="720" height="760" font-family="Inter, system-ui, sans-serif"><rect width="720" height="760" fill="#fbf8f1"/><text x="360.0" y="36" text-anchor="middle" font-size="20" fill="#342f29" font-weight="600">mlkem throughput (Tolkien / Twilight / Heinlein)</text><text x="360.0" y="58" text-anchor="middle" font-size="13" fill="#6b6257">log₂ radial axis (ops/sec)</text><polygon points="360.0,295.0 360.0,295.0 360.0,295.0 360.0,295.0 360.0,295.0 360.0,295.0 360.0,295.0 360.0,295.0 360.0,295.0" fill="none" stroke="#c9c2b7" stroke-width="0.7" stroke-dasharray="2,3"/><polygon points="360.0,240.0 395.4,252.9 414.2,285.4 407.6,322.5 378.8,346.7 341.2,346.7 312.4,322.5 305.8,285.4 324.6,252.9" fill="none" stroke="#c9c2b7" stroke-width="0.7" stroke-dasharray="2,3"/><polygon points="360.0,185.0 430.7,210.7 468.3,275.9 455.3,350.0 397.6,398.4 322.4,398.4 264.7,350.0 251.7,275.9 289.3,210.7" fill="none" stroke="#c9c2b7" stroke-width="0.7" stroke-dasharray="2,3"/><polygon points="360.0,130.0 466.1,168.6 522.5,266.3 502.9,377.5 416.4,450.0 303.6,450.0 217.1,377.5 197.5,266.3 253.9,168.6" fill="none" stroke="#c9c2b7" stroke-width="0.7" stroke-dasharray="2,3"/><polygon points="360.0,75.0 501.4,126.5 576.7,256.8 550.5,405.0 435.2,501.7 284.8,501.7 169.5,405.0 143.3,256.8 218.6,126.5" fill="none" stroke="#c9c2b7" stroke-width="0.7" stroke-dasharray="2,3"/><line x1="360.0" y1="295.0" x2="360.0" y2="75.0" stroke="#a79d90" stroke-width="0.6"/><line x1="360.0" y1="295.0" x2="501.4" y2="126.5" stroke="#a79d90" stroke-width="0.6"/><line x1="360.0" y1="295.0" x2="576.7" y2="256.8" stroke="#a79d90" stroke-width="0.6"/><line x1="360.0" y1="295.0" x2="550.5" y2="405.0" stroke="#a79d90" stroke-width="0.6"/><line x1="360.0" y1="295.0" x2="435.2" y2="501.7" stroke="#a79d90" stroke-width="0.6"/><line x1="360.0" y1="295.0" x2="284.8" y2="501.7" stroke="#a79d90" stroke-width="0.6"/><line x1="360.0" y1="295.0" x2="169.5" y2="405.0" stroke="#a79d90" stroke-width="0.6"/><line x1="360.0" y1="295.0" x2="143.3" y2="256.8" stroke="#a79d90" stroke-width="0.6"/><line x1="360.0" y1="295.0" x2="218.6" y2="126.5" stroke="#a79d90" stroke-width="0.6"/><text x="360.0" y="292.0" font-size="9" fill="#6b6257" text-anchor="middle">8192</text><text x="360.0" y="237.0" font-size="9" fill="#6b6257" text-anchor="middle">16384</text><text x="360.0" y="182.0" font-size="9" fill="#6b6257" text-anchor="middle">32768</text><text x="360.0" y="127.0" font-size="9" fill="#6b6257" text-anchor="middle">65536</text><text x="360.0" y="72.0" font-size="9" fill="#6b6257" text-anchor="middle">131072</text><polygon points="360.0,124.0 494.9,134.2 563.4,259.1 474.2,360.9 424.7,472.7 297.0,468.0 276.8,343.0 197.2,266.3 257.4,172.7" fill="#0f766e" fill-opacity="0.10" stroke="#0f766e" stroke-width="2.0" stroke-linejoin="round"/><circle cx="360.0" cy="124.0" r="3.0" fill="#0f766e"/><circle cx="494.9" cy="134.2" r="3.0" fill="#0f766e"/><circle cx="563.4" cy="259.1" r="3.0" fill="#0f766e"/><circle cx="474.2" cy="360.9" r="3.0" fill="#0f766e"/><circle cx="424.7" cy="472.7" r="3.0" fill="#0f766e"/><circle cx="297.0" cy="468.0" r="3.0" fill="#0f766e"/><circle cx="276.8" cy="343.0" r="3.0" fill="#0f766e"/><circle cx="197.2" cy="266.3" r="3.0" fill="#0f766e"/><circle cx="257.4" cy="172.7" r="3.0" fill="#0f766e"/><polygon points="360.0,173.1 453.3,183.8 492.4,271.7 430.1,335.4 401.1,407.8 323.0,396.6 318.9,318.7 267.4,278.7 306.6,231.4" fill="#1d4ed8" fill-opacity="0.10" stroke="#1d4ed8" stroke-width="2.0" stroke-linejoin="round"/><circle cx="360.0" cy="173.1" r="3.0" fill="#1d4ed8"/><circle cx="453.3" cy="183.8" r="3.0" fill="#1d4ed8"/><circle cx="492.4" cy="271.7" r="3.0" fill="#1d4ed8"/><circle cx="430.1" cy="335.4" r="3.0" fill="#1d4ed8"/><circle cx="401.1" cy="407.8" r="3.0" fill="#1d4ed8"/><circle cx="323.0" cy="396.6" r="3.0" fill="#1d4ed8"/><circle cx="318.9" cy="318.7" r="3.0" fill="#1d4ed8"/><circle cx="267.4" cy="278.7" r="3.0" fill="#1d4ed8"/><circle cx="306.6" cy="231.4" r="3.0" fill="#1d4ed8"/><polygon points="360.0,210.2 429.8,211.8 458.9,277.6 397.9,316.9 388.7,373.8 334.6,364.7 352.8,299.1 302.3,284.8 328.6,257.5" fill="#b91c1c" fill-opacity="0.10" stroke="#b91c1c" stroke-width="2.0" stroke-linejoin="round"/><circle cx="360.0" cy="210.2" r="3.0" fill="#b91c1c"/><circle cx="429.8" cy="211.8" r="3.0" fill="#b91c1c"/><circle cx="458.9" cy="277.6" r="3.0" fill="#b91c1c"/><circle cx="397.9" cy="316.9" r="3.0" fill="#b91c1c"/><circle cx="388.7" cy="373.8" r="3.0" fill="#b91c1c"/><circle cx="334.6" cy="364.7" r="3.0" fill="#b91c1c"/><circle cx="352.8" cy="299.1" r="3.0" fill="#b91c1c"/><circle cx="302.3" cy="284.8" r="3.0" fill="#b91c1c"/><circle cx="328.6" cy="257.5" r="3.0" fill="#b91c1c"/><text x="360.0" y="53.0" font-size="12" fill="#342f29" text-anchor="middle">ML-KEM-512 keygen</text><text x="515.6" y="113.6" font-size="12" fill="#342f29" text-anchor="start">ML-KEM-512 encaps</text><text x="598.3" y="257.0" font-size="12" fill="#342f29" text-anchor="start">ML-KEM-512 decaps</text><text x="569.6" y="420.0" font-size="12" fill="#342f29" text-anchor="start">ML-KEM-768 keygen</text><text x="442.8" y="534.4" font-size="12" fill="#342f29" text-anchor="start">ML-KEM-768 encaps</text><text x="277.2" y="534.4" font-size="12" fill="#342f29" text-anchor="end">ML-KEM-768 decaps</text><text x="150.4" y="420.0" font-size="12" fill="#342f29" text-anchor="end">ML-KEM-1024 keygen</text><text x="121.7" y="257.0" font-size="12" fill="#342f29" text-anchor="end">ML-KEM-1024 encaps</text><text x="204.4" y="113.6" font-size="12" fill="#342f29" text-anchor="end">ML-KEM-1024 decaps</text><rect x="40" y="690" width="14" height="14" fill="#0f766e" fill-opacity="0.30" stroke="#0f766e" stroke-width="1.5"/><text x="62" y="701" font-size="12" fill="#342f29">Tolkien (M1, macOS)</text><rect x="40" y="708" width="14" height="14" fill="#1d4ed8" fill-opacity="0.30" stroke="#1d4ed8" stroke-width="1.5"/><text x="62" y="719" font-size="12" fill="#342f29">Twilight (EPYC 7452, single-core)</text><rect x="40" y="726" width="14" height="14" fill="#b91c1c" fill-opacity="0.30" stroke="#b91c1c" stroke-width="1.5"/><text x="62" y="737" font-size="12" fill="#342f29">Heinlein (Jetson, aarch64)</text></svg>