<svg xmlns="http://www.w3.org/2000/svg" viewBox="0 0 720 760" width="720" height="760" font-family="Inter, system-ui, sans-serif"><rect width="720" height="760" fill="#fbf8f1"/><text x="360.0" y="36" text-anchor="middle" font-size="20" fill="#342f29" font-weight="600">NTRU (NIST PQC round 3) throughput</text><text x="360.0" y="58" text-anchor="middle" font-size="13" fill="#6b6257">log₂ radial axis (ops/sec)</text><polygon points="360.0,295.0 360.0,295.0 360.0,295.0 360.0,295.0 360.0,295.0 360.0,295.0 360.0,295.0 360.0,295.0 360.0,295.0 360.0,295.0 360.0,295.0 360.0,295.0" fill="none" stroke="#c9c2b7" stroke-width="0.7" stroke-dasharray="2,3"/><polygon points="360.0,267.5 373.8,271.2 383.8,281.2 387.5,295.0 383.8,308.8 373.8,318.8 360.0,322.5 346.2,318.8 336.2,308.8 332.5,295.0 336.2,281.2 346.2,271.2" fill="none" stroke="#c9c2b7" stroke-width="0.7" stroke-dasharray="2,3"/><polygon points="360.0,240.0 387.5,247.4 407.6,267.5 415.0,295.0 407.6,322.5 387.5,342.6 360.0,350.0 332.5,342.6 312.4,322.5 305.0,295.0 312.4,267.5 332.5,247.4" fill="none" stroke="#c9c2b7" stroke-width="0.7" stroke-dasharray="2,3"/><polygon points="360.0,212.5 401.2,223.6 431.4,253.8 442.5,295.0 431.4,336.2 401.2,366.4 360.0,377.5 318.8,366.4 288.6,336.2 277.5,295.0 288.6,253.8 318.7,223.6" fill="none" stroke="#c9c2b7" stroke-width="0.7" stroke-dasharray="2,3"/><polygon points="360.0,185.0 415.0,199.7 455.3,240.0 470.0,295.0 455.3,350.0 415.0,390.3 360.0,405.0 305.0,390.3 264.7,350.0 250.0,295.0 264.7,240.0 305.0,199.7" fill="none" stroke="#c9c2b7" stroke-width="0.7" stroke-dasharray="2,3"/><polygon points="360.0,157.5 428.8,175.9 479.1,226.2 497.5,295.0 479.1,363.8 428.8,414.1 360.0,432.5 291.2,414.1 240.9,363.8 222.5,295.0 240.9,226.2 291.2,175.9" fill="none" stroke="#c9c2b7" stroke-width="0.7" stroke-dasharray="2,3"/><polygon points="360.0,130.0 442.5,152.1 502.9,212.5 525.0,295.0 502.9,377.5 442.5,437.9 360.0,460.0 277.5,437.9 217.1,377.5 195.0,295.0 217.1,212.5 277.5,152.1" fill="none" stroke="#c9c2b7" stroke-width="0.7" stroke-dasharray="2,3"/><polygon points="360.0,102.5 456.2,128.3 526.7,198.8 552.5,295.0 526.7,391.2 456.2,461.7 360.0,487.5 263.8,461.7 193.3,391.3 167.5,295.0 193.3,198.7 263.7,128.3" fill="none" stroke="#c9c2b7" stroke-width="0.7" stroke-dasharray="2,3"/><polygon points="360.0,75.0 470.0,104.5 550.5,185.0 580.0,295.0 550.5,405.0 470.0,485.5 360.0,515.0 250.0,485.5 169.5,405.0 140.0,295.0 169.5,185.0 250.0,104.5" fill="none" stroke="#c9c2b7" stroke-width="0.7" stroke-dasharray="2,3"/><line x1="360.0" y1="295.0" x2="360.0" y2="75.0" stroke="#a79d90" stroke-width="0.6"/><line x1="360.0" y1="295.0" x2="470.0" y2="104.5" stroke="#a79d90" stroke-width="0.6"/><line x1="360.0" y1="295.0" x2="550.5" y2="185.0" stroke="#a79d90" stroke-width="0.6"/><line x1="360.0" y1="295.0" x2="580.0" y2="295.0" stroke="#a79d90" stroke-width="0.6"/><line x1="360.0" y1="295.0" x2="550.5" y2="405.0" stroke="#a79d90" stroke-width="0.6"/><line x1="360.0" y1="295.0" x2="470.0" y2="485.5" stroke="#a79d90" stroke-width="0.6"/><line x1="360.0" y1="295.0" x2="360.0" y2="515.0" stroke="#a79d90" stroke-width="0.6"/><line x1="360.0" y1="295.0" x2="250.0" y2="485.5" stroke="#a79d90" stroke-width="0.6"/><line x1="360.0" y1="295.0" x2="169.5" y2="405.0" stroke="#a79d90" stroke-width="0.6"/><line x1="360.0" y1="295.0" x2="140.0" y2="295.0" stroke="#a79d90" stroke-width="0.6"/><line x1="360.0" y1="295.0" x2="169.5" y2="185.0" stroke="#a79d90" stroke-width="0.6"/><line x1="360.0" y1="295.0" x2="250.0" y2="104.5" stroke="#a79d90" stroke-width="0.6"/><text x="360.0" y="292.0" font-size="9" fill="#6b6257" text-anchor="middle">128</text><text x="360.0" y="264.5" font-size="9" fill="#6b6257" text-anchor="middle">256</text><text x="360.0" y="237.0" font-size="9" fill="#6b6257" text-anchor="middle">512</text><text x="360.0" y="209.5" font-size="9" fill="#6b6257" text-anchor="middle">1024</text><text x="360.0" y="182.0" font-size="9" fill="#6b6257" text-anchor="middle">2048</text><text x="360.0" y="154.5" font-size="9" fill="#6b6257" text-anchor="middle">4096</text><text x="360.0" y="127.0" font-size="9" fill="#6b6257" text-anchor="middle">8192</text><text x="360.0" y="99.5" font-size="9" fill="#6b6257" text-anchor="middle">16384</text><text x="360.0" y="72.0" font-size="9" fill="#6b6257" text-anchor="middle">32768</text><polygon points="360.0,213.8 449.6,139.8 494.5,217.4 436.8,295.0 508.9,381.0 443.6,439.9 360.0,340.6 283.2,427.9 247.5,360.0 285.3,295.0 184.3,193.5 277.2,151.7" fill="#0f766e" fill-opacity="0.10" stroke="#0f766e" stroke-width="2.0" stroke-linejoin="round"/><circle cx="360.0" cy="213.8" r="3.0" fill="#0f766e"/><circle cx="449.6" cy="139.8" r="3.0" fill="#0f766e"/><circle cx="494.5" cy="217.4" r="3.0" fill="#0f766e"/><circle cx="436.8" cy="295.0" r="3.0" fill="#0f766e"/><circle cx="508.9" cy="381.0" r="3.0" fill="#0f766e"/><circle cx="443.6" cy="439.9" r="3.0" fill="#0f766e"/><circle cx="360.0" cy="340.6" r="3.0" fill="#0f766e"/><circle cx="283.2" cy="427.9" r="3.0" fill="#0f766e"/><circle cx="247.5" cy="360.0" r="3.0" fill="#0f766e"/><circle cx="285.3" cy="295.0" r="3.0" fill="#0f766e"/><circle cx="184.3" cy="193.5" r="3.0" fill="#0f766e"/><circle cx="277.2" cy="151.7" r="3.0" fill="#0f766e"/><polygon points="360.0,223.4 445.0,147.7 494.6,217.3 417.9,295.0 499.3,375.4 436.7,427.9 360.0,335.0 286.8,421.7 245.6,361.1 302.9,295.0 197.3,201.1 284.1,163.5" fill="#1d4ed8" fill-opacity="0.10" stroke="#1d4ed8" stroke-width="2.0" stroke-linejoin="round"/><circle cx="360.0" cy="223.4" r="3.0" fill="#1d4ed8"/><circle cx="445.0" cy="147.7" r="3.0" fill="#1d4ed8"/><circle cx="494.6" cy="217.3" r="3.0" fill="#1d4ed8"/><circle cx="417.9" cy="295.0" r="3.0" fill="#1d4ed8"/><circle cx="499.3" cy="375.4" r="3.0" fill="#1d4ed8"/><circle cx="436.7" cy="427.9" r="3.0" fill="#1d4ed8"/><circle cx="360.0" cy="335.0" r="3.0" fill="#1d4ed8"/><circle cx="286.8" cy="421.7" r="3.0" fill="#1d4ed8"/><circle cx="245.6" cy="361.1" r="3.0" fill="#1d4ed8"/><circle cx="302.9" cy="295.0" r="3.0" fill="#1d4ed8"/><circle cx="197.3" cy="201.1" r="3.0" fill="#1d4ed8"/><circle cx="284.1" cy="163.5" r="3.0" fill="#1d4ed8"/><polygon points="360.0,251.8 430.4,173.0 466.6,233.5 391.3,295.0 476.7,362.4 421.9,402.2 360.0,306.9 300.2,398.5 271.4,346.1 333.1,295.0 223.7,216.3 299.7,190.5" fill="#b91c1c" fill-opacity="0.10" stroke="#b91c1c" stroke-width="2.0" stroke-linejoin="round"/><circle cx="360.0" cy="251.8" r="3.0" fill="#b91c1c"/><circle cx="430.4" cy="173.0" r="3.0" fill="#b91c1c"/><circle cx="466.6" cy="233.5" r="3.0" fill="#b91c1c"/><circle cx="391.3" cy="295.0" r="3.0" fill="#b91c1c"/><circle cx="476.7" cy="362.4" r="3.0" fill="#b91c1c"/><circle cx="421.9" cy="402.2" r="3.0" fill="#b91c1c"/><circle cx="360.0" cy="306.9" r="3.0" fill="#b91c1c"/><circle cx="300.2" cy="398.5" r="3.0" fill="#b91c1c"/><circle cx="271.4" cy="346.1" r="3.0" fill="#b91c1c"/><circle cx="333.1" cy="295.0" r="3.0" fill="#b91c1c"/><circle cx="223.7" cy="216.3" r="3.0" fill="#b91c1c"/><circle cx="299.7" cy="190.5" r="3.0" fill="#b91c1c"/><text x="360.0" y="53.0" font-size="12" fill="#342f29" text-anchor="middle">NTRU-HPS-509 keygen</text><text x="481.0" y="85.4" font-size="12" fill="#342f29" text-anchor="start">NTRU-HPS-509 encaps</text><text x="569.6" y="178.0" font-size="12" fill="#342f29" text-anchor="start">NTRU-HPS-509 decaps</text><text x="602.0" y="299.0" font-size="12" fill="#342f29" text-anchor="start">NTRU-HPS-677 keygen</text><text x="569.6" y="420.0" font-size="12" fill="#342f29" text-anchor="start">NTRU-HPS-677 encaps</text><text x="481.0" y="516.6" font-size="12" fill="#342f29" text-anchor="start">NTRU-HPS-677 decaps</text><text x="360.0" y="549.0" font-size="12" fill="#342f29" text-anchor="middle">NTRU-HPS-821 keygen</text><text x="239.0" y="516.6" font-size="12" fill="#342f29" text-anchor="end">NTRU-HPS-821 encaps</text><text x="150.4" y="420.0" font-size="12" fill="#342f29" text-anchor="end">NTRU-HPS-821 decaps</text><text x="118.0" y="299.0" font-size="12" fill="#342f29" text-anchor="end">NTRU-HRSS-701 keygen</text><text x="150.4" y="178.0" font-size="12" fill="#342f29" text-anchor="end">NTRU-HRSS-701 encaps</text><text x="239.0" y="85.4" font-size="12" fill="#342f29" text-anchor="end">NTRU-HRSS-701 decaps</text><rect x="40" y="690" width="14" height="14" fill="#0f766e" fill-opacity="0.30" stroke="#0f766e" stroke-width="1.5"/><text x="62" y="701" font-size="12" fill="#342f29">Tolkien (M1, macOS)</text><rect x="40" y="708" width="14" height="14" fill="#1d4ed8" fill-opacity="0.30" stroke="#1d4ed8" stroke-width="1.5"/><text x="62" y="719" font-size="12" fill="#342f29">Dennard (EPYC 7452, single-core)</text><rect x="40" y="726" width="14" height="14" fill="#b91c1c" fill-opacity="0.30" stroke="#b91c1c" stroke-width="1.5"/><text x="62" y="737" font-size="12" fill="#342f29">Heinlein (Jetson, aarch64)</text></svg>