<svg xmlns="http://www.w3.org/2000/svg" width="620" height="620" viewBox="0 0 620 620" role="img" aria-labelledby="title desc">
  <!-- Generated by assets/generate_symmetric_platform_radar.py -->
  <title id="title">Symmetric throughput: M1 Max vs Xeon 6740E</title>
  <desc id="desc">Log-scaled radar chart comparing representative fast-path symmetric throughput for Apple M1 Max and Intel Xeon 6740E.</desc>
  <style>
    .bg { fill: #fbf8f1; }
    .grid { fill: none; stroke: #c9c2b7; stroke-width: 1; }
    .axis { stroke: #a79d90; stroke-width: 1; }
    .label { fill: #342f29; font: 12px ui-sans-serif, -apple-system, BlinkMacSystemFont, "Segoe UI", sans-serif; }
    .small { fill: #6b6257; font: 11px ui-sans-serif, -apple-system, BlinkMacSystemFont, "Segoe UI", sans-serif; }
    .m1-fill { fill: #0f766e; fill-opacity: 0.18; stroke: #0f766e; stroke-width: 2; }
    .xeon-fill { fill: #1d4ed8; fill-opacity: 0.18; stroke: #1d4ed8; stroke-width: 2; }
  </style>

  <rect class="bg" x="0" y="0" width="620" height="620" rx="16" />

  <polygon class="grid" points="310.0,231.5 318.6,233.6 325.2,239.5 328.4,247.8 327.3,256.6 322.3,263.8 314.4,268.0 305.6,268.0 297.7,263.8 292.7,256.6 291.6,247.8 294.8,239.5 301.4,233.6" />
  <polygon class="grid" points="310.0,213.0 327.2,217.2 340.5,229.0 346.7,245.5 344.6,263.1 334.5,277.7 318.9,285.9 301.1,285.9 285.5,277.7 275.4,263.1 273.3,245.5 279.5,229.0 292.8,217.2" />
  <polygon class="grid" points="310.0,194.5 335.8,200.9 355.7,218.5 365.1,243.3 361.9,269.7 346.8,291.5 323.3,303.9 296.7,303.9 273.2,291.5 258.1,269.7 254.9,243.3 264.3,218.5 284.2,200.9" />
  <polygon class="grid" points="310.0,176.0 344.4,184.5 370.9,208.0 383.5,241.1 379.2,276.2 359.1,305.4 327.7,321.8 292.3,321.8 260.9,305.4 240.8,276.2 236.5,241.1 249.1,208.0 275.6,184.5" />
  <polygon class="grid" points="310.0,157.5 353.0,168.1 386.1,197.5 401.8,238.9 396.5,282.8 371.3,319.2 332.1,339.8 287.9,339.8 248.7,319.2 223.5,282.8 218.2,238.9 233.9,197.5 267.0,168.1" />
  <polygon class="grid" points="310.0,139.0 361.6,151.7 401.4,186.9 420.2,236.6 413.8,289.4 383.6,333.1 336.6,357.8 283.4,357.8 236.4,333.1 206.2,289.4 199.8,236.6 218.6,186.9 258.4,151.7" />
  <polygon class="grid" points="310.0,120.5 370.2,135.3 416.6,176.4 438.6,234.4 431.1,295.9 395.9,346.9 341.0,375.7 279.0,375.7 224.1,346.9 188.9,295.9 181.4,234.4 203.4,176.4 249.8,135.3" />
  <polygon class="grid" points="310.0,102.0 378.8,119.0 431.8,165.9 456.9,232.2 448.4,302.5 408.1,360.8 345.4,393.7 274.6,393.7 211.9,360.8 171.6,302.5 163.1,232.2 188.2,165.9 241.2,119.0" />
  <polygon class="grid" points="310.0,83.5 387.4,102.6 447.0,155.4 475.3,229.9 465.7,309.0 420.4,374.6 349.8,411.7 270.2,411.7 199.6,374.6 154.3,309.0 144.7,229.9 173.0,155.4 232.6,102.6" />
  <polygon class="grid" points="310.0,65.0 396.0,86.2 462.3,144.9 493.7,227.7 483.0,315.6 432.7,388.5 354.3,429.6 265.7,429.6 187.3,388.5 137.0,315.6 126.3,227.7 157.7,144.9 224.0,86.2" />

  <line class="axis" x1="310" y1="250" x2="310.0" y2="65.0" />
  <line class="axis" x1="310" y1="250" x2="396.0" y2="86.2" />
  <line class="axis" x1="310" y1="250" x2="462.3" y2="144.9" />
  <line class="axis" x1="310" y1="250" x2="493.7" y2="227.7" />
  <line class="axis" x1="310" y1="250" x2="483.0" y2="315.6" />
  <line class="axis" x1="310" y1="250" x2="432.7" y2="388.5" />
  <line class="axis" x1="310" y1="250" x2="354.3" y2="429.6" />
  <line class="axis" x1="310" y1="250" x2="265.7" y2="429.6" />
  <line class="axis" x1="310" y1="250" x2="187.3" y2="388.5" />
  <line class="axis" x1="310" y1="250" x2="137.0" y2="315.6" />
  <line class="axis" x1="310" y1="250" x2="126.3" y2="227.7" />
  <line class="axis" x1="310" y1="250" x2="157.7" y2="144.9" />
  <line class="axis" x1="310" y1="250" x2="224.0" y2="86.2" />

  <polygon class="m1-fill" points="310.0,96.3 363.6,147.9 416.7,176.4 408.6,238.0 350.1,265.2 367.4,314.7 326.8,318.0 279.4,374.3 247.7,320.4 263.0,267.8 159.1,231.7 183.1,162.4 233.0,103.3" />
  <polygon class="xeon-fill" points="310.0,115.9 362.4,150.1 408.4,182.1 408.5,238.0 315.3,252.0 368.6,316.2 321.4,296.2 281.0,367.6 248.1,319.9 245.6,274.4 168.4,232.8 195.1,170.7 240.7,117.9" />

  <text class="small" x="350" y="232">2</text>
  <text class="small" x="350" y="214">4</text>
  <text class="small" x="350" y="196">8</text>
  <text class="small" x="350" y="177">16</text>
  <text class="small" x="350" y="158">32</text>
  <text class="small" x="350" y="140">64</text>
  <text class="small" x="350" y="122">128</text>
  <text class="small" x="350" y="103">256</text>
  <text class="small" x="350" y="84">512</text>
  <text class="small" x="350" y="66">1024</text>

  <text class="label" x="310.0" y="41.0" text-anchor="middle">AES-128</text>
  <text class="label" x="407.1" y="64.9" text-anchor="start">Camellia-128</text>
  <text class="label" x="482.0" y="135.3" text-anchor="start">CAST-128</text>
  <text class="label" x="517.5" y="228.8" text-anchor="start">DES</text>
  <text class="label" x="505.4" y="328.1" text-anchor="start">PRESENT-80</text>
  <text class="label" x="448.6" y="418.4" text-anchor="start">Magma</text>
  <text class="label" x="360.0" y="464.9" text-anchor="start">Grasshopper</text>
  <text class="label" x="260.0" y="464.9" text-anchor="end">SM4</text>
  <text class="label" x="171.4" y="418.4" text-anchor="end">SEED</text>
  <text class="label" x="114.6" y="328.1" text-anchor="end">Twofish-256</text>
  <text class="label" x="102.5" y="228.8" text-anchor="end">SNOW 3G</text>
  <text class="label" x="138.0" y="135.3" text-anchor="end">ZUC-128</text>
  <text class="label" x="212.9" y="64.9" text-anchor="end">ChaCha20</text>

  <text class="label" x="20" y="560">Symmetric Throughput Comparison (fast path, log scale)</text>
  <text class="small" x="20" y="578">M1 Max (wigner.local) vs Xeon 6740E (ssh.soe.ucsc.edu), MiB/s</text>
  <rect x="404" y="548" width="14" height="14" fill="#0f766e" rx="2" />
  <text class="small" x="424" y="559">M1 Max</text>
  <rect x="404" y="570" width="14" height="14" fill="#1d4ed8" rx="2" />
  <text class="small" x="424" y="581">Xeon 6740E</text>
</svg>
