<svg xmlns="http://www.w3.org/2000/svg" width="620" height="650" viewBox="0 0 620 650" role="img" aria-labelledby="title desc">
  <!-- Generated by assets/generate_x86_go_fast_radar.py -->
  <title id="title">x86 go-fast throughput curves: go-fast vs baseline/reference</title>
  <desc id="desc">Radar chart with two curves (go-fast and baseline/reference). Each axis is normalized independently so both throughput values can be shown despite unit differences.</desc>
  <style>
    .bg { fill: #fbf8f1; }
    .grid { fill: none; stroke: #c9c2b7; stroke-width: 1; }
    .axis { stroke: #a79d90; stroke-width: 1; }
    .label { fill: #342f29; font: 12px ui-sans-serif, -apple-system, BlinkMacSystemFont, "Segoe UI", sans-serif; }
    .small { fill: #6b6257; font: 11px ui-sans-serif, -apple-system, BlinkMacSystemFont, "Segoe UI", sans-serif; }
    .base-fill { fill: #b45309; fill-opacity: 0.16; stroke: #b45309; stroke-width: 2; }
    .fast-fill { fill: #0f766e; fill-opacity: 0.24; stroke: #0f766e; stroke-width: 2; }
  </style>

  <rect class="bg" x="0" y="0" width="620" height="650" rx="16" />

  <polygon class="grid" points="310.0,214.0 341.2,268.0 278.8,268.0" />
  <polygon class="grid" points="310.0,178.0 372.4,286.0 247.6,286.0" />
  <polygon class="grid" points="310.0,142.0 403.5,304.0 216.5,304.0" />
  <polygon class="grid" points="310.0,106.0 434.7,322.0 185.3,322.0" />
  <polygon class="grid" points="310.0,70.0 465.9,340.0 154.1,340.0" />

  <line class="axis" x1="310" y1="250" x2="310.0" y2="70.0" />
  <line class="axis" x1="310" y1="250" x2="465.9" y2="340.0" />
  <line class="axis" x1="310" y1="250" x2="154.1" y2="340.0" />

  <polygon class="base-fill" points="310.0,232.5 324.1,258.2 300.7,255.4" />
  <polygon class="fast-fill" points="310.0,70.0 465.9,340.0 154.1,340.0" />

  <text class="small" x="347" y="215">20%</text>
  <text class="small" x="347" y="179">40%</text>
  <text class="small" x="347" y="143">60%</text>
  <text class="small" x="347" y="107">80%</text>
  <text class="small" x="347" y="71">100%</text>

  <text class="label" x="310.0" y="46.0" text-anchor="middle">AES-128</text>
  <text class="small" x="310.0" y="60.0" text-anchor="middle">2,557 / 248.9 MiB/s</text>
  <text class="label" x="486.7" y="356.0" text-anchor="start">AES-256</text>
  <text class="small" x="486.7" y="370.0" text-anchor="start">2,044 / 185.4 MiB/s</text>
  <text class="label" x="133.3" y="356.0" text-anchor="end">GHASH</text>
  <text class="small" x="133.3" y="370.0" text-anchor="end">42.39 / 2.54 Mops/s</text>

  <text class="label" x="20" y="566">x86 Go-Fast Throughput Curves (per-axis normalized)</text>
  <text class="small" x="20" y="584">Published set uses a ≥5× promotion gate; GHASH baseline is Ct software reference</text>
  <rect x="20" y="606" width="14" height="14" fill="#0f766e" rx="2" />
  <text class="small" x="40" y="617">Go-fast throughput</text>
  <rect x="184" y="606" width="14" height="14" fill="#b45309" rx="2" />
  <text class="small" x="204" y="617">Baseline/reference throughput</text>
</svg>
